<svg xmlns="http://www.w3.org/2000/svg" xmlns:xlink="http://www.w3.org/1999/xlink" version="1.1" x="0px" y="0px" viewBox="0 10 50 30" fill="currentColor" style="enable-background:new 0 0 50 50;" xml:space="preserve"><g><g><g><g><path d="M11.3718,26.3885c-2.6694,0-4.8281,2.1586-4.8281,4.8281c0,2.6696,2.1586,4.8281,4.8281,4.8281      c2.6696,0,4.8281-2.1586,4.8281-4.8281C16.2,28.5471,14.0414,26.3885,11.3718,26.3885z M11.3718,33.3492      c-1.1759,0-2.1325-0.9566-2.1325-2.1325s0.9566-2.1325,2.1325-2.1325s2.1325,0.9566,2.1325,2.1325      S12.5477,33.3492,11.3718,33.3492z"/></g></g></g><g><g><g><path d="M34.1698,26.3885c-2.6694,0-4.8281,2.1586-4.8281,4.8281c0,2.6696,2.1586,4.8281,4.8281,4.8281      c2.6696,0,4.8281-2.1586,4.8281-4.8281C38.9979,28.5471,36.8394,26.3885,34.1698,26.3885z M34.1698,33.3492      c-1.1759,0-2.1325-0.9566-2.1325-2.1325s0.9566-2.1325,2.1325-2.1325s2.1325,0.9566,2.1325,2.1325      S35.3457,33.3492,34.1698,33.3492z"/></g></g></g><path d="M47.7693,18.6645h-2.2225c-0.3448,0-0.6259,0.2811-0.6259,0.626v1.9926h-1.089l-0.0043-0.0177l-1.28-5.31   c-0.28-1.17-1.34-2-2.54-2h-16.71c-0.9,0-1.76,0.48-2.23,1.26l-3.65,6.05l-0.29,0.48l-0.74,0.04l-12.18,0.53   c-1.46,0.05-2.59,1.25-2.59,2.71v4.86c0,0.5522,0.4477,1,1,1h1.95c0.16-3.61,3.15-6.5,6.8-6.5c3.66,0,6.65,2.89,6.81,6.5h9.18   c0.16-3.61,3.16-6.5,6.81-6.5c3.66,0,6.65,2.89,6.81,6.5h1.95c0.5523,0,1-0.4478,1-1v-4.6428h0.0013v-0.4598h0.992v1.9926   c0,0.3449,0.281,0.6259,0.6259,0.6259h2.2225c0.332,0,0.613-0.2809,0.613-0.6259v-7.4848   C48.3824,18.9455,48.1014,18.6645,47.7693,18.6645z M29.6739,20.277h-9.1347l2.5255-4.1913   c0.2149-0.3582,0.609-0.5821,1.0209-0.5821h5.5883V20.277z M31.2411,20.277v-4.7733h7.8092c0.5463,0,1.0389,0.394,1.1642,0.9224   l0.9314,3.8509H31.2411z"/></g></svg>