<svg xmlns="http://www.w3.org/2000/svg" version="1.1" viewBox="0 20 100.0 60" fill="currentColor">
 <path d="m7.3008 40.602 6 0.30078 10.5-5.6992c3.3008-2.1016 6.8984-3.3008 10.5-3.3008l17.102 0.30078c4.5 0 7.5 1.1992 11.398 3.6016l14.398 9c16.5 0.89844 17.699 3.8984 20.102 12 0.60156 2.6992 0 4.8008-3 4.8008h-3.8984v-1.1992c0-5.1016-4.1992-9.3008-9.3008-9.3008-5.1016 0-9.3008 4.1992-9.3008 9.3008v1.1992l-42.602-0.003907c0-0.60156 0.30078-0.89844 0.30078-1.1992 0-5.1016-4.1992-9.3008-9.3008-9.3008-5.3984 0-9.3008 4.1992-9.3008 9.3008v1.1992h-5.0977c-1.8008 0-3.6016-1.5-3.3008-3.6016l1.5-14.102c0-1.7969 1.5-3.2969 3.3008-3.2969zm62.699 3.8984-9-5.6992c-3.3008-2.1016-5.6992-3-9.6016-3h-2.6992v7.1992zm-25.801-9h-10.199c-5.1016 0-6.3008 2.1016-9.8984 6l20.102 1.1992z" fill-rule="evenodd"/>
 <path d="m20.199 52.5c4.1992 0 7.8008 3.3008 7.8008 7.8008 0 4.1992-3.6016 7.8008-7.8008 7.8008-4.5 0-8.1016-3.6016-8.1016-7.8008 0.003906-4.5 3.6016-7.8008 8.1016-7.8008zm0 3.8984c1.8008 0 3.6016 1.8008 3.6016 3.8984 0 2.1016-1.8008 3.6016-3.6016 3.6016-2.1016 0-3.8984-1.5-3.8984-3.6016 0-2.0977 1.8008-3.8984 3.8984-3.8984z" fill-rule="evenodd"/>
 <path d="m81.102 52.5c4.5 0 7.8008 3.3008 7.8008 7.8008 0 4.1992-3.3008 7.8008-7.8008 7.8008-4.1992 0-7.8008-3.6016-7.8008-7.8008 0-4.5 3.5977-7.8008 7.8008-7.8008zm0 3.8984c2.1016 0 3.8984 1.8008 3.8984 3.8984 0 2.1016-1.8008 3.6016-3.8984 3.6016-2.1016 0-3.6016-1.5-3.6016-3.6016 0-2.0977 1.5-3.8984 3.6016-3.8984z" fill-rule="evenodd"/>
</svg>