<svg xmlns:dc="http://purl.org/dc/elements/1.1/" xmlns:cc="http://creativecommons.org/ns#" xmlns:rdf="http://www.w3.org/1999/02/22-rdf-syntax-ns#" xmlns:svg="http://www.w3.org/2000/svg" xmlns="http://www.w3.org/2000/svg" xmlns:sodipodi="http://sodipodi.sourceforge.net/DTD/sodipodi-0.dtd" xmlns:inkscape="http://www.inkscape.org/namespaces/inkscape" version="1.1" x="0px" y="0px" viewBox="0 10 100 80"><g transform="translate(0,-952.36218)"><path d="m 88.593899,976.36219 -50.2813,0.062 c -4.6781,0 -8.7127,3.74389 -12.9062,8.08409 -4.1376,4.2823 -8.3164,9.4044 -12.1563,13.2653 -6.1484,2.27782 -9.75,6.76372 -9.75,11.54872 l 0,7.054 c 0,4.9632 1,5.962 7.25,5.9928 -0.3671,-1.3783 -0.2252,-2.7057 0,-3.9952 -2.25,-0.031 -3.25,-1.0297 -3.25,-3.9953 l 5.3438,0 c 1.6524,-1.8275 4.0225,-2.9964 6.6562,-2.9964 2.6337,0 5.0038,1.1689 6.6563,2.9964 l 45.6875,0 c 1.6524,-1.8275 4.0225,-2.9964 6.6562,-2.9964 2.6337,0 5.0038,1.1689 6.6563,2.9964 l 7.343702,0 c 0,2.9656 -1,3.9644 -5.250002,3.9329 0.358,1.3782 0.2367,2.7024 0.031,3.9952 7.218802,0.032 9.218802,-1.9661 9.218802,-5.9928 l 0,-33.89702 c 0,-4.02589 -2,-6.02349 -7.906202,-6.05469 z m 0,3.99519 c 2.081102,0 3.897602,0.3566 3.906202,2.0599 l 0,21.19342 c -0.619,0.3567 -1.0174,1.0655 -1,1.7791 l 0,1.9976 c -0.01,0.7032 0.3902,1.3962 1,1.7479 l 0,1.2485 -50.000002,0 c 0,-7.9999 0,-15.97453 0,-23.97133 -10e-5,-1.0459 -0.9528,-1.99749 -2,-1.9976 -2.0538,0 -4.1486,0 -6.1875,0 -0.4839,0.043 -0.9491,0.2701 -1.2812,0.6243 l -15,15.98083 c -0.5355,0.5651 -0.6922,1.4571 -0.3813,2.1704 0.3108,0.7135 1.0711,1.2068 1.85,1.2006 l 13,0 c 0.3136,-5e-4 0.6269,-0.076 0.9063,-0.2185 l 5.0937,-2.5594 0,8.7707 -31,0 0,-1.0612 c 0,-2.9387 2.1942,-6.2446 7.625,-8.0529 0.2917,-0.094 0.5613,-0.2551 0.7813,-0.4681 4.1178,-4.11303 8.3656,-9.36523 12.375,-13.51513 4.0093,-4.1493 7.8978,-6.8668 10.0312,-6.8668 z m -42.2813,4.0575 c -0.9832,0.093 -1.8168,1.0113 -1.8125,1.9976 l 0,15.98092 c 1e-4,1.0459 0.9528,1.9975 2,1.9976 l 10,0 c 1.0472,-10e-5 1.9999,-0.9517 2,-1.9976 l 0,-15.98092 c -10e-5,-1.0459 -0.9528,-1.9975 -2,-1.9976 -3.3886,0 -6.8132,0 -10.1875,0 z m 16,0 c -0.9832,0.093 -1.8168,1.0113 -1.8125,1.9976 l 0,15.98092 c 1e-4,1.0459 0.9528,1.9975 2,1.9976 l 10,0 c 1.0472,-10e-5 1.9999,-0.9517 2,-1.9976 l 0,-15.98092 c -1e-4,-1.0459 -0.9528,-1.9975 -2,-1.9976 -3.3886,0 -6.8132,0 -10.1875,0 z m 16,0 c -0.9832,0.093 -1.8168,1.0113 -1.8125,1.9976 l 0,15.98092 c 10e-5,1.0459 0.9528,1.9975 2,1.9976 l 10,0 c 1.0472,-10e-5 1.999902,-0.9517 2.000002,-1.9976 l 0,-15.98092 c -1e-4,-1.0459 -0.952802,-1.9975 -2.000002,-1.9976 -3.3886,0 -6.8132,0 -10.1875,0 z m -63.8125,19.97612 c -1.6667,0.333 -3.6875,0.2809 -4.6875,1.2797 -1,0.9988 -1.3125,2.7155 -1.3125,3.7143 3,0 6,-1.9976 6,-4.994 z m 5,7.9592 c -4.3946,0 -8,3.6323 -8,8.0216 0,4.3895 3.6054,7.9904 8,7.9904 4.3946,0 8,-3.6009 8,-7.9904 0,-4.3893 -3.6054,-8.0216 -8,-8.0216 z m 59,0 c -4.3946,0 -8,3.6322 -8,8.0216 0,4.3894 3.6054,7.9904 8,7.9904 4.3946,0 8,-3.601 8,-7.9904 0,-4.3894 -3.6054,-8.0216 -8,-8.0216 z m -8.75,5.9928 -41.5,0.031 c 0.3609,1.3735 0.2314,2.7068 0.031,3.9952 l 41.4375,-0.031 c -0.3385,-1.3749 -0.19,-2.7141 0.031,-3.9952 z" fill="currentColor" fill-opacity="1" stroke="none" marker="none" visibility="visible" display="inline" overflow="visible"/></g></svg>