<?xml version="1.0" encoding="utf-8"?><!DOCTYPE svg PUBLIC "-//W3C//DTD SVG 1.1//EN" "http://www.w3.org/Graphics/SVG/1.1/DTD/svg11.dtd"><svg version="1.1" xmlns="http://www.w3.org/2000/svg" xmlns:xlink="http://www.w3.org/1999/xlink" x="0px" y="0px" viewBox="0 -10 100 80" enable-background="new 0 0 100 100" xml:space="preserve"><path fill="currentColor" d="M88.859,42.068c3.373,0,6.44,0.932,8.899,2.932H100c-0.497-4-5.88-7.676-12.02-7.572l-1.519,0.332
	c0.251-0.514,0.483-1.031,0.704-1.535c0.076-0.035,0.268-0.061,0.268-0.061L91,35.497v-4.769l-2.061-0.355
	c0.014-0.208-0.021-0.424-0.021-0.623c0-6.729-8.933-20.935-14.335-27.033C73.021,0.951,71.562,0,67.922,0
	c-3.018,0-35.006,0-43.235,0C1.25,0,2,14.542,2,14.542V30h29v-8.423v-5.16V7.924C31,6.631,31.881,6,33.173,6h15.32
	C49.786,6,51,6.631,51,7.923v8.493v5.16v26.09C51,49.042,50.542,51,49.167,51h-10c-1.375,0-2.708-1.541-2.708-2.916
	c0,0,0.018-9.414-3.742-12.04C31.142,34.943,30.885,33,30.842,32H2v4.422l-2,0.322v4.767l2,0.337V56h25.5h46.998
	C74.881,48,81.146,42.068,88.859,42.068z M69.383,26h-12.1C56.021,26,55,24.561,55,23.3V7.866C55,6.605,56.021,6,57.283,6h10.434
	C68.979,6,70,6.813,70,8.074l1.667,15.539C71.667,24.874,70.645,26,69.383,26z M77.954,23.926c-0.091,0.014-0.179,0.02-0.267,0.02
	c-0.898,0-1.672-0.645-1.84-1.53l-2.654-13.94C73,7.456,73.67,6.47,74.688,6.275l0.869-0.165c3.233,4.27,7.315,10.763,9.705,16.424
	l-7.219,1.374L77.954,23.926z"/><path fill="currentColor" d="M5.391,58c1.143,5.148,5.728,9,11.22,9c5.492,0,10.077-3.852,11.22-9H5.391z"/><path fill="currentColor" d="M88.5,44C82.148,44,77,49.148,77,55.5S82.148,67,88.5,67S100,61.852,100,55.5S94.852,44,88.5,44z
	 M88.5,59.25c-2.07,0-3.75-1.68-3.75-3.75s1.68-3.75,3.75-3.75s3.75,1.68,3.75,3.75S90.57,59.25,88.5,59.25z"/></svg>